{"title":"Franklyn.2008.DVDRIP.XviD-ZEKTORM","uid":4977002,"size":740540385,"categoryP":"video","categoryS":"movies","magnet":"?xt=urn:btih:f116c29b7da4b329c5649bcfbf54832cd1c734ee&amp;dn=Franklyn.2008.DVDRIP.XviD-ZEKTORM&amp;tr=udp%3A%2F%2Ftracker.openbittorrent.com%3A80&amp;tr=udp%3A%2F%2Fopen.demonii.com%3A1337&amp;tr=udp%3A%2F%2Ftracker.coppersurfer.tk%3A6969&amp;tr=udp%3A%2F%2Fexodus.desync.com%3A6969","seeders":1,"leechers":0,"uploader":"blowley","files":5,"time":1246046621,"description":"Title                            : Franklyn\nYear                             : 2008\nGenre                            : Drama | Fantasy | Romance | Thriller\niMDB URL                         : http://www.imdb.com/title/tt0893402/\n\nComplete name                    : F-ZEKTORM.avi\nFormat                           : AVI\nFile size                        : 702 MiB\nDuration                         : 1h 34mn\nOverall bit rate                 : 1043 Kbps\nSubtitles                        : English (Format: VobSub)\nSource                           : DVD PAL\n\nVideo\nFormat                           : MPEG-4 Visual\nFormat profile                   : Streaming Video@L1\nCodec ID                         : XVID\nCodec ID/Hint                    : XviD\nDuration                         : 1h 34mn\nBit rate                         : 920 Kbps\nWidth                            : 720 pixels\nHeight                           : 304 pixels\nDisplay aspect ratio             : 2.35\nFrame rate                       : 25.000 fps\nResolution                       : 24 bits\nColorimetry                      : 4:2:0\nScan type                        : Progressive\nBits/(Pixel*Frame)               : 0.168\nStream size                      : 618 MiB (88%)\nWriting library                  : XviD\n\nAudio\nFormat                           : MPEG Audio\nFormat version                   : Version 1\nFormat profile                   : Layer 3\nCodec ID                         : 55\nCodec ID/Hint                    : MP3\nDuration                         : 1h 34mn\nBit rate mode                    : Variable\nBit rate                         : 111 Kbps\nMinimum bit rate                 : 128 Kbps\nChannel(s)                       : 2 channels\nSampling rate                    : 48.0 KHz\nResolution                       : 16 bits\nStream size                      : 74.4 MiB (11%)\nWriting library                  : LAME3.98r\nEncoding settings                : ABR\n","torrent":{"xt":"urn:btih:f116c29b7da4b329c5649bcfbf54832cd1c734ee","amp;dn":"Franklyn.2008.DVDRIP.XviD-ZEKTORM","amp;tr":["udp%3A%2F%2Ftracker.openbittorrent.com%3A80","udp%3A%2F%2Fopen.demonii.com%3A1337","udp%3A%2F%2Ftracker.coppersurfer.tk%3A6969","udp%3A%2F%2Fexodus.desync.com%3A6969"],"infoHash":"f116c29b7da4b329c5649bcfbf54832cd1c734ee","infoHashBuffer":{"type":"Buffer","data":[241,22,194,155,125,164,179,41,197,100,155,207,191,84,131,44,209,199,52,238]},"announce":[],"urlList":[]}}